<mxfile host="Electron" agent="Mozilla/5.0 (Windows NT 10.0; Win64; x64) AppleWebKit/537.36 (KHTML, like Gecko) draw.io/24.7.8 Chrome/128.0.6613.36 Electron/32.0.1 Safari/537.36" version="24.7.8">
  <diagram name="Page-1" id="ux-xhi-C1XFqPwV9VUEr">
    <mxGraphModel dx="1440" dy="2149" grid="1" gridSize="10" guides="1" tooltips="1" connect="1" arrows="1" fold="1" page="1" pageScale="1" pageWidth="850" pageHeight="1100" math="0" shadow="0">
      <root>
        <mxCell id="0" />
        <mxCell id="1" parent="0" />
        <mxCell id="QGp7JBuP-bVQCIqEcSqE-9" value="" style="rounded=0;whiteSpace=wrap;html=1;" parent="1" vertex="1">
          <mxGeometry x="71" y="383" width="530" height="227" as="geometry" />
        </mxCell>
        <mxCell id="QGp7JBuP-bVQCIqEcSqE-14" style="edgeStyle=orthogonalEdgeStyle;rounded=0;orthogonalLoop=1;jettySize=auto;html=1;exitX=0;exitY=0.75;exitDx=0;exitDy=0;entryX=1;entryY=0.75;entryDx=0;entryDy=0;" parent="1" source="v7R2SqKS8okpCNfLnLLp-1" target="v7R2SqKS8okpCNfLnLLp-2" edge="1">
          <mxGeometry relative="1" as="geometry" />
        </mxCell>
        <mxCell id="v7R2SqKS8okpCNfLnLLp-1" value="Classification&lt;div&gt;Model&lt;/div&gt;" style="rounded=0;whiteSpace=wrap;html=1;" parent="1" vertex="1">
          <mxGeometry x="470" y="475" width="120" height="60" as="geometry" />
        </mxCell>
        <mxCell id="QGp7JBuP-bVQCIqEcSqE-5" style="edgeStyle=orthogonalEdgeStyle;rounded=0;orthogonalLoop=1;jettySize=auto;html=1;entryX=0;entryY=0.5;entryDx=0;entryDy=0;" parent="1" source="v7R2SqKS8okpCNfLnLLp-2" target="v7R2SqKS8okpCNfLnLLp-1" edge="1">
          <mxGeometry relative="1" as="geometry" />
        </mxCell>
        <mxCell id="v7R2SqKS8okpCNfLnLLp-2" value="API" style="rounded=0;whiteSpace=wrap;html=1;" parent="1" vertex="1">
          <mxGeometry x="320" y="475" width="120" height="60" as="geometry" />
        </mxCell>
        <mxCell id="QGp7JBuP-bVQCIqEcSqE-4" style="edgeStyle=orthogonalEdgeStyle;rounded=0;orthogonalLoop=1;jettySize=auto;html=1;exitX=1;exitY=0.5;exitDx=0;exitDy=0;entryX=0;entryY=0.5;entryDx=0;entryDy=0;" parent="1" source="v7R2SqKS8okpCNfLnLLp-3" target="v7R2SqKS8okpCNfLnLLp-2" edge="1">
          <mxGeometry relative="1" as="geometry" />
        </mxCell>
        <mxCell id="v7R2SqKS8okpCNfLnLLp-3" value="Gradio" style="rounded=0;whiteSpace=wrap;html=1;" parent="1" vertex="1">
          <mxGeometry x="166" y="475" width="120" height="60" as="geometry" />
        </mxCell>
        <mxCell id="QGp7JBuP-bVQCIqEcSqE-1" value="" style="shape=actor;whiteSpace=wrap;html=1;" parent="1" vertex="1">
          <mxGeometry x="80" y="459.5" width="40" height="60" as="geometry" />
        </mxCell>
        <mxCell id="QGp7JBuP-bVQCIqEcSqE-8" value="&lt;font style=&quot;font-size: 15px;&quot;&gt;&lt;b&gt;Accent Classification High Level Process&lt;/b&gt;&lt;/font&gt;" style="text;html=1;align=center;verticalAlign=middle;whiteSpace=wrap;rounded=0;" parent="1" vertex="1">
          <mxGeometry x="162" y="398" width="320" height="30" as="geometry" />
        </mxCell>
        <mxCell id="QGp7JBuP-bVQCIqEcSqE-10" value="1" style="ellipse;whiteSpace=wrap;html=1;aspect=fixed;" parent="1" vertex="1">
          <mxGeometry x="135" y="482" width="15" height="15" as="geometry" />
        </mxCell>
        <mxCell id="QGp7JBuP-bVQCIqEcSqE-12" value="2" style="ellipse;whiteSpace=wrap;html=1;aspect=fixed;" parent="1" vertex="1">
          <mxGeometry x="291" y="485" width="15" height="15" as="geometry" />
        </mxCell>
        <mxCell id="QGp7JBuP-bVQCIqEcSqE-13" value="3" style="ellipse;whiteSpace=wrap;html=1;aspect=fixed;" parent="1" vertex="1">
          <mxGeometry x="443" y="484" width="15" height="15" as="geometry" />
        </mxCell>
        <mxCell id="QGp7JBuP-bVQCIqEcSqE-15" style="edgeStyle=orthogonalEdgeStyle;rounded=0;orthogonalLoop=1;jettySize=auto;html=1;exitX=0;exitY=0.75;exitDx=0;exitDy=0;entryX=0.983;entryY=0.763;entryDx=0;entryDy=0;entryPerimeter=0;" parent="1" source="v7R2SqKS8okpCNfLnLLp-2" target="v7R2SqKS8okpCNfLnLLp-3" edge="1">
          <mxGeometry relative="1" as="geometry" />
        </mxCell>
        <mxCell id="QGp7JBuP-bVQCIqEcSqE-20" value="" style="endArrow=classic;startArrow=classic;html=1;rounded=0;entryX=0;entryY=0.5;entryDx=0;entryDy=0;" parent="1" target="v7R2SqKS8okpCNfLnLLp-3" edge="1">
          <mxGeometry width="50" height="50" relative="1" as="geometry">
            <mxPoint x="123" y="504.88" as="sourcePoint" />
            <mxPoint x="157" y="504.88" as="targetPoint" />
          </mxGeometry>
        </mxCell>
        <mxCell id="QGp7JBuP-bVQCIqEcSqE-21" value="User" style="text;html=1;align=center;verticalAlign=middle;whiteSpace=wrap;rounded=0;" parent="1" vertex="1">
          <mxGeometry x="70" y="520" width="60" height="30" as="geometry" />
        </mxCell>
      </root>
    </mxGraphModel>
  </diagram>
</mxfile>
